<svg width="80" height="81" viewBox="0 0 80 81" fill="none" xmlns="http://www.w3.org/2000/svg">
<path fill-rule="evenodd" clip-rule="evenodd" d="M24.6813 58.9984C36.0897 57.3035 43.9447 57.4492 55.368 59.0577C56.1953 59.1797 56.9512 59.6019 57.4962 60.2465C58.0412 60.8911 58.3384 61.7144 58.333 62.5645C58.333 63.3781 58.058 64.1679 57.5613 64.7848C56.6957 65.8605 55.8088 66.9183 54.9013 67.9577H59.303C59.5797 67.6221 59.858 67.2798 60.1397 66.9323C61.1283 65.6994 61.6676 64.157 61.6663 62.5662C61.6663 59.134 59.203 56.1764 55.8247 55.7018C44.1313 54.056 35.958 53.8984 24.1997 55.6459C20.7863 56.1526 18.333 59.156 18.333 62.612C18.333 64.1459 18.8247 65.6628 19.7563 66.8916C20.0313 67.2543 20.303 67.6103 20.573 67.9594H24.868C24.0237 66.9315 23.2002 65.8861 22.398 64.8238C21.9213 64.1879 21.6641 63.4099 21.6663 62.6103C21.6663 60.7848 22.9563 59.2543 24.6813 58.9984ZM39.9997 42.534C41.3129 42.534 42.6133 42.271 43.8265 41.7599C45.0398 41.2488 46.1422 40.4997 47.0707 39.5554C47.9993 38.6111 48.7359 37.49 49.2385 36.2562C49.741 35.0224 49.9997 33.7 49.9997 32.3645C49.9997 31.029 49.741 29.7066 49.2385 28.4728C48.7359 27.239 47.9993 26.1179 47.0707 25.1736C46.1422 24.2293 45.0398 23.4802 43.8265 22.9691C42.6133 22.458 41.3129 22.195 39.9997 22.195C37.3475 22.195 34.804 23.2664 32.9286 25.1736C31.0532 27.0807 29.9997 29.6674 29.9997 32.3645C29.9997 35.0616 31.0532 37.6483 32.9286 39.5554C34.804 41.4626 37.3475 42.534 39.9997 42.534V42.534ZM39.9997 45.9238C43.5359 45.9238 46.9273 44.4953 49.4278 41.9524C51.9282 39.4095 53.333 35.9607 53.333 32.3645C53.333 28.7683 51.9282 25.3195 49.4278 22.7766C46.9273 20.2337 43.5359 18.8052 39.9997 18.8052C36.4635 18.8052 33.0721 20.2337 30.5716 22.7766C28.0711 25.3195 26.6663 28.7683 26.6663 32.3645C26.6663 35.9607 28.0711 39.4095 30.5716 41.9524C33.0721 44.4953 36.4635 45.9238 39.9997 45.9238V45.9238Z" fill="black"/>
<path fill-rule="evenodd" clip-rule="evenodd" d="M39.9998 71.3475C56.5682 71.3475 69.9998 57.6881 69.9998 40.839C69.9998 23.9898 56.5682 10.3305 39.9998 10.3305C23.4315 10.3305 9.99984 23.9898 9.99984 40.839C9.99984 57.6881 23.4315 71.3475 39.9998 71.3475ZM39.9998 74.7373C58.4098 74.7373 73.3332 59.561 73.3332 40.839C73.3332 22.1169 58.4098 6.94067 39.9998 6.94067C21.5898 6.94067 6.6665 22.1169 6.6665 40.839C6.6665 59.561 21.5898 74.7373 39.9998 74.7373Z" fill="black"/>
</svg>
